# xmcd
#
# Track frame offsets:
#	150
#	22413
#	39089
#	53985
#	76668
#	93485
#	114461
#	136700
#	165102
#	183341
#	204205
#
# Disc length: 2987 seconds
#
# Revision: 1
# Processed by: cddbd v1.5.2PL0 Copyright (c) Steve Scherf et al.
# Submitted via: dBpowerAMP V4.0
#
DISCID=7b0ba90b
DTITLE=לאה שבת - צל הלב תקין
DYEAR=1900
DGENRE=Blues
TTITLE0=תמיד יחכו לך
TTITLE1=ים של חלומות
TTITLE2=הכל בסדר
TTITLE3=נסתרות
TTITLE4=מסביב לעולם
TTITLE5=חתיכת שמיים
TTITLE6=לא יודעת איך
TTITLE7=הולכת אל הים
TTITLE8=לראות באפילה
TTITLE9=סדר היום
TTITLE10=תמונות של מלאכים
EXTD=לאה שבת\nצל הלב תקין
EXTT0=
EXTT1=
EXTT2=
EXTT3=
EXTT4=
EXTT5=
EXTT6=
EXTT7=
EXTT8=
EXTT9=
EXTT10=
PLAYORDER=
